<mxfile host="app.diagrams.net" modified="2020-12-07T11:43:33.108Z" agent="5.0 (Windows NT 10.0; Win64; x64) AppleWebKit/537.36 (KHTML, like Gecko) Chrome/79.0.3945.88 Safari/537.36" etag="jafNvw_JayCxkwiFNQgk" version="13.10.9" type="github">
  <diagram id="Bp6JKUOrYxHD0rqzajSv" name="Page-1">
    <mxGraphModel dx="962" dy="1593" grid="1" gridSize="10" guides="1" tooltips="1" connect="1" arrows="1" fold="1" page="1" pageScale="1" pageWidth="827" pageHeight="1169" math="0" shadow="0">
      <root>
        <mxCell id="0" />
        <mxCell id="1" parent="0" />
        <mxCell id="sM335oUsd0Nrfm-g1LFZ-3" value="" style="edgeStyle=orthogonalEdgeStyle;rounded=0;orthogonalLoop=1;jettySize=auto;html=1;" edge="1" parent="1" source="sM335oUsd0Nrfm-g1LFZ-1" target="sM335oUsd0Nrfm-g1LFZ-2">
          <mxGeometry relative="1" as="geometry" />
        </mxCell>
        <mxCell id="sM335oUsd0Nrfm-g1LFZ-1" value="&lt;font style=&quot;font-size: 14px&quot;&gt;OnUpdate()&lt;/font&gt;" style="rounded=1;whiteSpace=wrap;html=1;" vertex="1" parent="1">
          <mxGeometry x="70" y="480" width="120" height="60" as="geometry" />
        </mxCell>
        <mxCell id="sM335oUsd0Nrfm-g1LFZ-5" value="" style="edgeStyle=orthogonalEdgeStyle;rounded=0;orthogonalLoop=1;jettySize=auto;html=1;" edge="1" parent="1" source="sM335oUsd0Nrfm-g1LFZ-2" target="sM335oUsd0Nrfm-g1LFZ-4">
          <mxGeometry relative="1" as="geometry" />
        </mxCell>
        <mxCell id="sM335oUsd0Nrfm-g1LFZ-2" value="&lt;font style=&quot;font-size: 14px&quot;&gt;HandleTimeout()&lt;/font&gt;" style="whiteSpace=wrap;html=1;rounded=1;" vertex="1" parent="1">
          <mxGeometry x="260" y="480" width="120" height="60" as="geometry" />
        </mxCell>
        <mxCell id="sM335oUsd0Nrfm-g1LFZ-7" value="" style="edgeStyle=orthogonalEdgeStyle;rounded=0;orthogonalLoop=1;jettySize=auto;html=1;" edge="1" parent="1" source="sM335oUsd0Nrfm-g1LFZ-4" target="sM335oUsd0Nrfm-g1LFZ-6">
          <mxGeometry relative="1" as="geometry" />
        </mxCell>
        <mxCell id="sM335oUsd0Nrfm-g1LFZ-4" value="&lt;font style=&quot;font-size: 14px&quot;&gt;GameMgr::FrameTick()&lt;/font&gt;" style="whiteSpace=wrap;html=1;rounded=1;" vertex="1" parent="1">
          <mxGeometry x="430" y="480" width="150" height="60" as="geometry" />
        </mxCell>
        <mxCell id="sM335oUsd0Nrfm-g1LFZ-9" value="" style="edgeStyle=orthogonalEdgeStyle;rounded=0;orthogonalLoop=1;jettySize=auto;html=1;" edge="1" parent="1" source="sM335oUsd0Nrfm-g1LFZ-6" target="sM335oUsd0Nrfm-g1LFZ-8">
          <mxGeometry relative="1" as="geometry" />
        </mxCell>
        <mxCell id="sM335oUsd0Nrfm-g1LFZ-6" value="&lt;font style=&quot;font-size: 14px&quot;&gt;Game::FrameTick()&lt;/font&gt;" style="whiteSpace=wrap;html=1;rounded=1;" vertex="1" parent="1">
          <mxGeometry x="640" y="480" width="130" height="60" as="geometry" />
        </mxCell>
        <mxCell id="sM335oUsd0Nrfm-g1LFZ-12" value="" style="edgeStyle=orthogonalEdgeStyle;rounded=0;orthogonalLoop=1;jettySize=auto;html=1;" edge="1" parent="1" source="sM335oUsd0Nrfm-g1LFZ-8" target="sM335oUsd0Nrfm-g1LFZ-11">
          <mxGeometry relative="1" as="geometry" />
        </mxCell>
        <mxCell id="sM335oUsd0Nrfm-g1LFZ-8" value="&lt;font style=&quot;font-size: 14px&quot;&gt;CalcFrame()&lt;/font&gt;" style="whiteSpace=wrap;html=1;rounded=1;" vertex="1" parent="1">
          <mxGeometry x="645" y="600" width="120" height="60" as="geometry" />
        </mxCell>
        <mxCell id="sM335oUsd0Nrfm-g1LFZ-10" value="&lt;font style=&quot;font-size: 14px&quot;&gt;计算单局一帧内的收到的所有action&lt;/font&gt;" style="text;html=1;strokeColor=none;fillColor=none;align=center;verticalAlign=middle;whiteSpace=wrap;rounded=0;fontStyle=1" vertex="1" parent="1">
          <mxGeometry x="500" y="620" width="140" height="30" as="geometry" />
        </mxCell>
        <mxCell id="sM335oUsd0Nrfm-g1LFZ-11" value="&lt;font style=&quot;font-size: 14px&quot;&gt;OnStateXXX()&lt;/font&gt;" style="whiteSpace=wrap;html=1;rounded=1;" vertex="1" parent="1">
          <mxGeometry x="645" y="720" width="120" height="60" as="geometry" />
        </mxCell>
        <mxCell id="sM335oUsd0Nrfm-g1LFZ-13" value="&lt;span style=&quot;font-size: 14px&quot;&gt;根据单局状态进行相关的单局设置&lt;/span&gt;" style="text;html=1;strokeColor=none;fillColor=none;align=center;verticalAlign=middle;whiteSpace=wrap;rounded=0;fontStyle=1" vertex="1" parent="1">
          <mxGeometry x="490" y="735" width="140" height="30" as="geometry" />
        </mxCell>
      </root>
    </mxGraphModel>
  </diagram>
</mxfile>
